#!OML:ASF F:\VICON\USERDATA\INSTALL\rory3\rory3.ASF
:FULLY-SPECIFIED
:DEGREES
3778
root 2.8411 18.3047 14.2422 542.986 65.7812 185.269
lowerback 12.9095 1.35379 1.83696
upperback 3.10786 2.21919 0.339744
thorax -3.9123 1.1559 -1.04014
lowerneck -11.7233 -0.701225 -12.1157
upperneck 44.5322 7.20127 0.661215
head 18.6241 2.1362 4.20549
rclavicle -5.03795e-014 8.34896e-015
rhumerus -30.8454 -3.77729 -83.9066
rradius 38.7943
rwrist 0.0637985
rhand -17.1348 5.94409
rfingers 7.12502
rthumb 9.10523 -23.8394
lclavicle -5.03795e-014 8.34896e-015
lhumerus -26.433 -1.94209 88.6712
lradius 42.0067
lwrist 1.26836
lhand -19.131 27.7419
lfingers 7.12502
lthumb 7.17871 57.6001
rfemur -9.43071 -0.513391 20.5081
rtibia 31.4617
rfoot -5.89057 -3.10523
rtoes -8.56946
lfemur -20.0579 -4.75382 -18.2825
ltibia 54.2081
lfoot -2.86194 -8.13881
ltoes -5.72327
3779
root 2.73384 18.3213 14.2288 542.5 66.1472 184.837
lowerback 12.6961 1.24821 1.47577
upperback 3.15444 2.02723 0.357798
thorax -3.76558 1.06519 -0.780536
lowerneck -11.6202 -0.70607 -12.1452
upperneck 44.3621 7.10826 0.612748
head 18.4977 2.08664 4.15129
rclavicle 7.3364e-015 5.26779e-015
rhumerus -31.4744 -3.23346 -84.0603
rradius 39.1062
rwrist -0.289392
rhand -17.2381 5.94636
rfingers 7.12502
rthumb 9.00555 -23.8414
lclavicle 7.3364e-015 5.26779e-015
lhumerus -26.2882 -1.94991 88.7187
lradius 42.0704
lwrist 1.51103
lhand -17.938 27.1793
lfingers 7.12502
lthumb 8.33018 56.9951
rfemur -9.54804 -0.396058 20.1267
rtibia 31.1074
rfoot -5.45066 -3.03083
rtoes -9.59056
lfemur -18.9688 -4.66263 -18.1641
ltibia 54.4944
lfoot -2.56786 -7.7511
ltoes -3.91766
3780
root 2.62742 18.3384 14.2128 541.96 66.5254 184.341
lowerback 12.4491 1.14239 1.12539
upperback 3.19324 1.83615 0.358359
thorax -3.60513 0.973744 -0.545791
lowerneck -11.4921 -0.698679 -12.1104
upperneck 44.1916 7.04944 0.492928
head 18.3702 2.05395 4.05814
rclavicle -1.32937e-014 -4.47266e-016
rhumerus -32.1861 -2.66182 -84.1635
rradius 39.3663
rwrist -0.303398
rhand -17.2367 5.90729
rfingers 7.12502
rthumb 9.00694 -23.8804
lclavicle -1.32937e-014 -4.47266e-016
lhumerus -26.0623 -2.11247 88.7604
lradius 41.9762
lwrist 1.97963
lhand -19.6484 27.7123
lfingers 7.12502
lthumb 6.67924 57.5869
rfemur -9.68637 -0.248846 19.6935
rtibia 30.7706
rfoot -5.05122 -2.98307
rtoes -8.52541
lfemur -17.8188 -4.64114 -18.0886
ltibia 54.6314
lfoot -2.25441 -7.57048
ltoes -3.71212
3781
root 2.50984 18.3505 14.1944 541.703 66.7125 184.102
lowerback 12.2883 1.09082 1.13079
upperback 3.15961 1.7562 0.220206
thorax -3.54895 0.932498 -0.676816
lowerneck -11.3203 -0.886738 -11.8087
upperneck 44.2047 6.62022 0.452913
head 18.3753 1.92318 3.90893
rclavicle 2.92338e-014 1.08338e-014
rhumerus -32.8721 -3.00272 -84.1722
rradius 39.3715
rwrist 0.306292
rhand -17.4142 5.61792
rfingers 7.12502
rthumb 8.83567 -24.1771
lclavicle 2.92338e-014 1.08338e-014
lhumerus -25.73 -2.71615 88.7193
lradius 41.7117
lwrist 2.21749
lhand -19.7675 28.0556
lfingers 7.12502
lthumb 6.56423 57.9339
rfemur -9.8991 -0.157928 19.3799
rtibia 30.4596
rfoot -4.51175 -3.02841
rtoes -8.04182
lfemur -16.7528 -4.73667 -17.9089
ltibia 54.6485
lfoot -1.92341 -7.61275
ltoes -6.808
3782
root 2.38787 18.355 14.1787 541.502 66.8114 183.927
lowerback 12.1763 1.10506 1.25846
upperback 3.08848 1.7738 -0.0289412
thorax -3.54963 0.93766 -1.00872
lowerneck -10.9873 -1.16684 -11.2978
upperneck 44.1962 5.95011 0.43425
head 18.3395 1.74129 3.68682
rclavicle -2.80286e-014 4.27387e-015
rhumerus -33.4494 -3.96672 -84.2094
rradius 39.1377
rwrist 0.949572
rhand -18.0275 4.70761
rfingers 7.12502
rthumb 8.24381 -25.1116
lclavicle -2.80286e-014 4.27387e-015
lhumerus -25.4565 -3.7593 88.6311
lradius 41.4507
lwrist 2.28913
lhand -20.2275 28.0215
lfingers 7.12502
lthumb 6.12019 57.9131
rfemur -10.1007 -0.155397 19.1399
rtibia 30.1858
rfoot -4.07268 -3.18544
rtoes -8.85333
lfemur -15.6859 -4.86385 -17.6797
ltibia 54.5788
lfoot -1.40371 -7.76242
ltoes -6.99417
3783
root 2.26155 18.3551 14.181 541.324 66.7699 183.608
lowerback 12.0229 0.785692 0.84626
upperback 3.02805 1.299 0.100338
thorax -3.55251 0.702612 -0.569054
lowerneck -11.0797 -1.12014 -11.5571
upperneck 44.1682 6.09297 0.371149
head 18.3396 1.73309 3.72323
rclavicle -4.91992e-015 -3.57812e-015
rhumerus -33.8109 -3.39431 -84.2193
rradius 39.0219
rwrist 1.06745
rhand -18.4087 3.98687
rfingers 7.12502
rthumb 7.87584 -25.8464
lclavicle -4.91992e-015 -3.57812e-015
lhumerus -25.2069 -3.4023 88.6649
lradius 41.342
lwrist 2.20914
lhand -20.6341 27.8439
lfingers 7.12502
lthumb 5.72762 57.7465
rfemur -10.5153 -0.248761 18.9235
rtibia 29.9707
rfoot -3.72434 -3.38931
rtoes -9.5214
lfemur -14.8443 -4.9887 -17.3919
ltibia 54.4012
lfoot -0.601431 -8.1976
ltoes -5.15472
3784
root 2.13161 18.3524 14.1847 541.53 66.7266 183.679
lowerback 11.9298 0.254386 0.396826
upperback 3.01598 0.555699 0.499505
thorax -3.53264 0.337197 0.210382
lowerneck -11.5906 -0.893281 -12.316
upperneck 44.1527 6.7192 0.320304
head 18.4159 1.81725 3.94536
rclavicle -8.40859e-014 9.19379e-015
rhumerus -34.0173 -1.93599 -84.1526
rradius 38.9716
rwrist 0.775338
rhand -18.4351 4.03601
rfingers 7.12502
rthumb 7.85037 -25.7982
lclavicle -8.40859e-014 9.19379e-015
lhumerus -24.8324 -2.05259 88.7836
lradius 41.2353
lwrist 1.99666
lhand -20.3834 27.6324
lfingers 7.12502
lthumb 5.96971 57.5283
rfemur -10.9936 -0.285109 18.8609
rtibia 29.7454
rfoot -3.30929 -3.49442
rtoes -10.2172
lfemur -14.025 -5.13989 -16.9427
ltibia 54.0828
lfoot 0.0869333 -8.6301
ltoes -3.79763
